<?xml version="1.0" encoding="utf-8"?>
<!-- Generator: Adobe Illustrator 25.2.3, SVG Export Plug-In . SVG Version: 6.00 Build 0)  -->
<svg version="1.1" id="レイヤー_1" xmlns="http://www.w3.org/2000/svg" xmlns:xlink="http://www.w3.org/1999/xlink" x="0px"
	 y="0px" viewBox="0 0 155.35 60" style="enable-background:new 0 0 155.35 60;" xml:space="preserve">
<style type="text/css">
	.st0{fill:#2864f0;}
</style>
<g>
	<path class="st0" d="M138.26,32.28c0.58,2.83,3.15,4.71,6.34,4.71c5.5,0,9.5-5.32,10.75-9.68l-1.62-0.34
		c-1.19,4.22-4.73,7.48-8.01,7.48c-3.27,0-3.85-2.15-3.85-3.5c4.48-0.9,8.16-2.34,8.16-5.95c0-1.64-1.12-3.28-4.1-3.28
		c-4.04,0-6.95,3.61-7.69,7.06c-1.54,3.67-4.96,6.58-8.05,6.58c-3.73,0-4.12-2.59-4.12-3.74c3.91-0.71,8.74-2.3,8.74-6.25
		c0-2.11-1.43-3.66-4.4-3.66c-4.65,0-7.65,4.24-8.31,7.98c-1.71,3.85-5.28,6.73-8.61,6.73c-3.84,0-4.48-2.5-4.48-4.1
		c3.73-0.71,9.42-2.27,9.42-6.69c0-2.02-1.26-3.92-4.7-3.92c-5.49,0-8.7,5.45-9.01,9.24c-0.76,0.12-1.49,0.18-2.11,0.18
		c-2.59,0-2.28-1.98-1.87-4.07c0.58-3.01-1.03-5.35-4.18-5.35c-3.6,0-6.25,3.56-7.73,7.07c0.84-4.3,0.11-6.94-5.06-6.94
		c-2.37,0-5.07,0.74-7.97,1.88c0,0.01,1.05-5.43,1.05-5.43c1.3-6.7,3.06-8.12,5.25-8.12c1.74,0,2.89,1.04,4.29,2.85l0.75-3.9
		c-1.73-1.01-3.39-1.41-5.15-1.41c-5.17,0-8.62,3.76-10.05,11.14l-1.35,6.97c-4.71,1.87-10.7,3.81-20.13,4.24l-0.44,2.24
		c9.23-0.36,15.3-2.11,20.06-3.91c0,0-2.57,13.24-2.57,13.24c-1.26,6.49-2.96,8.12-5.23,8.12c-2.11,0-3.38-1.68-4.29-2.85
		c-0.13,0.65-0.75,3.9-0.75,3.9c1.16,0.65,2.74,1.41,5.26,1.41c4.76,0,8.42-3.46,9.92-11.14l2.87-14.77
		c2.89-1.19,5.91-2.15,7.42-2.15c2.43,0,2.88,0.83,2.25,4.12L82.51,40.8l4.61-0.31l1.23-6.34c0.7-3.6,3.18-8.78,6.37-8.78
		c1.61,0,1.95,1.22,1.65,2.77c-0.78,4.01,1.6,5.03,4.4,5.03c1.07,0,2.37-0.01,3.95-0.24c0.17,2.43,2.12,6.38,7.47,6.38
		c4.14,0,7.67-2.72,10.02-6.17c0.49,2.24,2.57,4.96,6.78,4.96C132.79,38.1,136.08,35.45,138.26,32.28z M145.76,23.65
		c0.7,0,1.32,0.49,1.32,1.56c0,2.29-2.88,3.4-5.12,3.9C141.95,27.36,143.84,23.65,145.76,23.65z M130.23,23.81
		c0.75,0,1.41,0.5,1.41,1.69c0,2.39-3.08,3.61-5.48,4.15C126.16,27.76,128.25,23.81,130.23,23.81z M113.53,23.89
		c0.76,0,1.56,0.49,1.56,1.88c0,2.59-3.37,3.92-5.99,4.5C109.1,28.08,111.41,23.89,113.53,23.89z"/>
	<path class="st0" d="M36.27,27.54c-4.87,0-9.62-0.49-14.21-1.43C32.47,21.09,40.28,11.53,42.91,0L13.81,22.4
		c-1.63,1.25-2.06,0.82-3.6,0.82c-2.46,0-4.78,0.98-6.45,2.6c-0.64,0.62-0.73,0.8-1.72,1.04L0,27.35l3.87,0.85
		c3.09,0.68,3.79,1.18,5.49,3.39L31.25,60c0.56-8.36-1.96-16.68-7.67-23.33c2.41-0.02,4.63-0.44,6.77-1.18
		c1.78-0.61,2.22-0.75,4.47-0.75l11.6,0c0.16-0.78-0.14-1.01-1.28-1.17l-8.97-1.25c0.4-0.28,0.94-0.77,1.36-1.11
		c0.89-0.73,1.13-0.95,2.46-1.27c2.51-0.59,4.48-1.21,7-2.09c0.98-0.34,0.82-0.7,1.03-1.3C43.55,27.26,40.65,27.54,36.27,27.54z
		 M9.3,28.1c-0.8,0-1.44-0.65-1.44-1.44c0-0.8,0.65-1.44,1.44-1.44c0.8,0,1.44,0.65,1.44,1.44C10.74,27.46,10.09,28.1,9.3,28.1z
		 M23.37,34.91c-5.09,0-9.71-1.97-13.15-5.2c3.09-0.95,7.06-1.07,12.26-0.52c4.79,0.51,8.68,1.29,13.15,1.3
		C32.3,33.25,28.03,34.91,23.37,34.91z"/>
</g>
</svg>
